<mxfile host="app.diagrams.net" modified="2024-03-13T10:05:55.455Z" agent="Mozilla/5.0 (X11; Linux x86_64) AppleWebKit/537.36 (KHTML, like Gecko) Chrome/122.0.0.0 Safari/537.36" version="24.0.5" etag="d_D13ja-HnNuOcmBjri0" type="github">
  <diagram name="Страница — 1" id="X9HblBkoumpZKAXwwpaL">
    <mxGraphModel>
      <root>
        <mxCell id="0" />
        <mxCell id="1" parent="0" />
      </root>
    </mxGraphModel>
  </diagram>
</mxfile>
